<svg xmlns="http://www.w3.org/2000/svg" viewBox="0 0 906 215" role="img" aria-label="SelexOps">
<defs>
  <linearGradient id="selexopsGold" x1="0" y1="0" x2="1" y2="1">
    <stop offset="0" stop-color="#D8C4A8"/>
    <stop offset="0.52" stop-color="#C99B5D"/>
    <stop offset="1" stop-color="#A87832"/>
  </linearGradient>
  <linearGradient id="selexopsWarm" x1="0" y1="0" x2="1" y2="0">
    <stop offset="0" stop-color="#F7F2E8"/>
    <stop offset="0.68" stop-color="#D8C4A8"/>
    <stop offset="1" stop-color="#C99B5D"/>
  </linearGradient>
</defs>
<g transform="translate(16 -6) scale(.38)"><g fill="none" stroke-linecap="round" stroke-linejoin="round">
  <path d="M421 86 C350 28 235 28 162 82 C107 123 87 181 101 233 C105 247 101 258 93 274 L69 317 C63 328 69 337 82 339 L101 342 C108 343 111 350 106 356 L98 365 C93 371 96 378 105 381 C99 388 101 397 110 401 C105 421 115 442 134 448 C157 455 181 440 205 444 C229 448 240 467 237 489 C232 523 193 548 132 558" stroke="#2B1D15" stroke-width="8.5"/>
  <path d="M386 104 C326 70 220 72 171 109 C143 130 145 154 175 164 C201 173 232 166 262 181 C312 206 332 254 317 303 C307 338 281 365 270 399 C255 447 271 504 363 557" stroke="#2B1D15" stroke-width="7.2"/>
  <path d="M273 130 C306 139 334 148 365 151" stroke="#A87832" stroke-width="2.1"/>
  <path d="M315 144 C351 179 354 229 329 271" stroke="#A87832" stroke-width="1.8" opacity=".8"/>
  <path d="M365 151 C397 189 397 252 370 301" stroke="#A87832" stroke-width="2" opacity=".88"/>
  <circle cx="272" cy="130" r="6" fill="#A87832" stroke="none"/>
  <circle cx="315" cy="144" r="9" fill="#A87832" stroke="none"/>
  <circle cx="365" cy="151" r="8" fill="#A87832" stroke="none"/>
  <circle cx="329" cy="212" r="10" fill="#A87832" stroke="none"/>
  <circle cx="407" cy="204" r="11" fill="#A87832" stroke="none"/>
  <circle cx="386" cy="112" r="10" fill="#A87832" stroke="none"/>
</g></g><path d="M218.3 130.95C219.35 150.9 233.0 163.95 252.95 163.95C272.15 163.95 286.4 150.0 286.4 131.1C286.4 121.35 282.35 112.65 275.45 107.4C270.8 104.1 266.15 102.0 254.75 98.55000000000001C244.7 95.55 241.4 94.2 238.4 91.65C235.25 88.8 233.15 83.85000000000001 233.15 78.75C233.15 67.5 241.25 59.400000000000006 252.35 59.400000000000006C263.6 59.400000000000006 271.25 67.05 272.15 79.2H283.7C283.25 61.2 270.8 49.2 252.65 49.2C234.8 49.2 221.9 61.650000000000006 221.9 79.05C221.9 86.7 224.75 94.05 229.7 98.7C234.05 102.9 237.35 104.4 250.4 108.6C259.1 111.15 263.9 113.25 267.65 115.80000000000001C272.45 119.25 275.15 124.95 275.15 131.7C275.15 144.45 266.0 153.75 253.25 153.75C246.2 153.75 239.45 150.6 235.4 145.5C232.25 141.6 230.9 137.85 230.15 130.95Z" fill="#2B1D15"/>
<path d="M382.34999999999997 124.65C382.34999999999997 113.4 380.84999999999997 106.5 376.79999999999995 99.30000000000001C369.45 86.10000000000001 355.2 78.0 339.45 78.0C315.59999999999997 78.0 297.0 96.75 297.0 120.6C297.0 144.9 316.05 163.95 340.34999999999997 163.95C358.2 163.95 374.25 152.4 380.25 135.0H368.7C364.04999999999995 146.25 352.5 153.75 340.05 153.75C323.09999999999997 153.75 309.0 140.85 308.09999999999997 124.65ZM308.4 114.6C311.4 98.85 323.84999999999997 88.2 339.45 88.2C355.34999999999997 88.2 367.34999999999997 98.1 371.25 114.6Z" fill="#2B1D15"/>
<path d="M398.65 162.0H409.75V51.150000000000006H398.65Z" fill="#2B1D15"/>
<path d="M511.84999999999997 124.65C511.84999999999997 113.4 510.34999999999997 106.5 506.29999999999995 99.30000000000001C498.95 86.10000000000001 484.7 78.0 468.95 78.0C445.09999999999997 78.0 426.5 96.75 426.5 120.6C426.5 144.9 445.55 163.95 469.84999999999997 163.95C487.7 163.95 503.75 152.4 509.75 135.0H498.2C493.54999999999995 146.25 482.0 153.75 469.55 153.75C452.59999999999997 153.75 438.5 140.85 437.59999999999997 124.65ZM437.9 114.6C440.9 98.85 453.34999999999997 88.2 468.95 88.2C484.84999999999997 88.2 496.84999999999997 98.1 500.75 114.6Z" fill="#2B1D15"/>
<path d="M519.9000000000001 162.0H532.5L554.7 129.15L576.75 162.0H589.5L560.85 120.15L589.5 79.95H576.75L554.7 111.6L532.5 79.95H519.9000000000001L548.4000000000001 120.15Z" fill="#A87832"/>
<path d="M656.95 49.2C625.1500000000001 49.2 598.3000000000001 75.15 598.3000000000001 105.9C598.3000000000001 138.15 624.4000000000001 163.95 657.1 163.95C689.0500000000001 163.95 715.45 138.0 715.45 106.65C715.45 75.0 689.0500000000001 49.2 656.95 49.2ZM656.95 59.400000000000006C682.9000000000001 59.400000000000006 704.2 80.85000000000001 704.2 106.80000000000001C704.2 132.45 682.75 153.75 657.1 153.75C630.7 153.75 609.5500000000001 132.45 609.5500000000001 106.2C609.5500000000001 80.85000000000001 631.3000000000001 59.400000000000006 656.95 59.400000000000006Z" fill="#2B1D15"/>
<path d="M732.5000000000001 79.95V190.8H743.6V147.9C750.8000000000001 158.4 761.9000000000001 163.95 775.5500000000001 163.95C800.1500000000001 163.95 819.0500000000001 145.2 819.0500000000001 121.2C819.0500000000001 96.60000000000001 800.3000000000001 78.0 775.85 78.0C761.7500000000001 78.0 750.6500000000001 83.55 743.6 94.05V79.95ZM775.4000000000001 88.2C794.0000000000001 88.2 807.8000000000001 102.30000000000001 807.8000000000001 121.2C807.8000000000001 139.65 793.85 153.75 775.5500000000001 153.75C756.8000000000001 153.75 742.85 139.65 742.85 120.6C742.85 102.45 757.1 88.2 775.4000000000001 88.2Z" fill="#2B1D15"/>
<path d="M829.0500000000001 137.85C829.2 153.75 839.5500000000001 163.95 855.45 163.95C870.3000000000001 163.95 880.5 153.45 880.5 138.45C880.5 128.4 875.85 121.5 866.25 117.45C853.65 112.2 853.0500000000001 112.05000000000001 850.8000000000001 110.85C845.7 108.30000000000001 843.3000000000001 104.85 843.3000000000001 100.05000000000001C843.3000000000001 93.45 848.5500000000001 88.2 855.15 88.2C862.35 88.2 866.5500000000001 92.4 867.15 100.2H878.4C877.95 87.0 868.5 78.0 855.3000000000001 78.0C841.95 78.0 832.0500000000001 87.75 832.0500000000001 101.1C832.0500000000001 107.1 834.15 112.05000000000001 838.2 115.80000000000001C841.65 118.95 841.8000000000001 119.1 853.35 123.75C866.1 129.0 869.25 132.0 869.25 139.5C869.25 147.75 863.5500000000001 153.75 855.45 153.75C846.15 153.75 840.6 148.05 840.0 137.85Z" fill="#2B1D15"/>
</svg>
