<svg xmlns="http://www.w3.org/2000/svg" viewBox="0 0 906 225" role="img" aria-label="SelexOps">
<defs>
  <linearGradient id="selexopsGold" x1="0" y1="0" x2="1" y2="1">
    <stop offset="0" stop-color="#D8C4A8"/>
    <stop offset="0.52" stop-color="#C99B5D"/>
    <stop offset="1" stop-color="#A87832"/>
  </linearGradient>
  <linearGradient id="selexopsWarm" x1="0" y1="0" x2="1" y2="0">
    <stop offset="0" stop-color="#F7F2E8"/>
    <stop offset="0.68" stop-color="#D8C4A8"/>
    <stop offset="1" stop-color="#C99B5D"/>
  </linearGradient>
</defs>
<g transform="translate(16 -6) scale(.38)"><g fill="none" stroke-linecap="round" stroke-linejoin="round">
  <path d="M421 86 C350 28 235 28 162 82 C107 123 87 181 101 233 C105 247 101 258 93 274 L69 317 C63 328 69 337 82 339 L101 342 C108 343 111 350 106 356 L98 365 C93 371 96 378 105 381 C99 388 101 397 110 401 C105 421 115 442 134 448 C157 455 181 440 205 444 C229 448 240 467 237 489 C232 523 193 548 132 558" stroke="#2B1D15" stroke-width="8.5"/>
  <path d="M386 104 C326 70 220 72 171 109 C143 130 145 154 175 164 C201 173 232 166 262 181 C312 206 332 254 317 303 C307 338 281 365 270 399 C255 447 271 504 363 557" stroke="#2B1D15" stroke-width="7.2"/>
  <path d="M273 130 C306 139 334 148 365 151" stroke="#A87832" stroke-width="2.1"/>
  <path d="M315 144 C351 179 354 229 329 271" stroke="#A87832" stroke-width="1.8" opacity=".8"/>
  <path d="M365 151 C397 189 397 252 370 301" stroke="#A87832" stroke-width="2" opacity=".88"/>
  <circle cx="272" cy="130" r="6" fill="#A87832" stroke="none"/>
  <circle cx="315" cy="144" r="9" fill="#A87832" stroke="none"/>
  <circle cx="365" cy="151" r="8" fill="#A87832" stroke="none"/>
  <circle cx="329" cy="212" r="10" fill="#A87832" stroke="none"/>
  <circle cx="407" cy="204" r="11" fill="#A87832" stroke="none"/>
  <circle cx="386" cy="112" r="10" fill="#A87832" stroke="none"/>
</g></g><path d="M218.3 130.95C219.35 150.9 233.0 163.95 252.95 163.95C272.15 163.95 286.4 150.0 286.4 131.1C286.4 121.35 282.35 112.65 275.45 107.4C270.8 104.1 266.15 102.0 254.75 98.55000000000001C244.7 95.55 241.4 94.2 238.4 91.65C235.25 88.8 233.15 83.85000000000001 233.15 78.75C233.15 67.5 241.25 59.400000000000006 252.35 59.400000000000006C263.6 59.400000000000006 271.25 67.05 272.15 79.2H283.7C283.25 61.2 270.8 49.2 252.65 49.2C234.8 49.2 221.9 61.650000000000006 221.9 79.05C221.9 86.7 224.75 94.05 229.7 98.7C234.05 102.9 237.35 104.4 250.4 108.6C259.1 111.15 263.9 113.25 267.65 115.80000000000001C272.45 119.25 275.15 124.95 275.15 131.7C275.15 144.45 266.0 153.75 253.25 153.75C246.2 153.75 239.45 150.6 235.4 145.5C232.25 141.6 230.9 137.85 230.15 130.95Z" fill="#2B1D15"/>
<path d="M382.34999999999997 124.65C382.34999999999997 113.4 380.84999999999997 106.5 376.79999999999995 99.30000000000001C369.45 86.10000000000001 355.2 78.0 339.45 78.0C315.59999999999997 78.0 297.0 96.75 297.0 120.6C297.0 144.9 316.05 163.95 340.34999999999997 163.95C358.2 163.95 374.25 152.4 380.25 135.0H368.7C364.04999999999995 146.25 352.5 153.75 340.05 153.75C323.09999999999997 153.75 309.0 140.85 308.09999999999997 124.65ZM308.4 114.6C311.4 98.85 323.84999999999997 88.2 339.45 88.2C355.34999999999997 88.2 367.34999999999997 98.1 371.25 114.6Z" fill="#2B1D15"/>
<path d="M398.65 162.0H409.75V51.150000000000006H398.65Z" fill="#2B1D15"/>
<path d="M511.84999999999997 124.65C511.84999999999997 113.4 510.34999999999997 106.5 506.29999999999995 99.30000000000001C498.95 86.10000000000001 484.7 78.0 468.95 78.0C445.09999999999997 78.0 426.5 96.75 426.5 120.6C426.5 144.9 445.55 163.95 469.84999999999997 163.95C487.7 163.95 503.75 152.4 509.75 135.0H498.2C493.54999999999995 146.25 482.0 153.75 469.55 153.75C452.59999999999997 153.75 438.5 140.85 437.59999999999997 124.65ZM437.9 114.6C440.9 98.85 453.34999999999997 88.2 468.95 88.2C484.84999999999997 88.2 496.84999999999997 98.1 500.75 114.6Z" fill="#2B1D15"/>
<path d="M519.9000000000001 162.0H532.5L554.7 129.15L576.75 162.0H589.5L560.85 120.15L589.5 79.95H576.75L554.7 111.6L532.5 79.95H519.9000000000001L548.4000000000001 120.15Z" fill="#A87832"/>
<path d="M656.95 49.2C625.1500000000001 49.2 598.3000000000001 75.15 598.3000000000001 105.9C598.3000000000001 138.15 624.4000000000001 163.95 657.1 163.95C689.0500000000001 163.95 715.45 138.0 715.45 106.65C715.45 75.0 689.0500000000001 49.2 656.95 49.2ZM656.95 59.400000000000006C682.9000000000001 59.400000000000006 704.2 80.85000000000001 704.2 106.80000000000001C704.2 132.45 682.75 153.75 657.1 153.75C630.7 153.75 609.5500000000001 132.45 609.5500000000001 106.2C609.5500000000001 80.85000000000001 631.3000000000001 59.400000000000006 656.95 59.400000000000006Z" fill="#2B1D15"/>
<path d="M732.5000000000001 79.95V190.8H743.6V147.9C750.8000000000001 158.4 761.9000000000001 163.95 775.5500000000001 163.95C800.1500000000001 163.95 819.0500000000001 145.2 819.0500000000001 121.2C819.0500000000001 96.60000000000001 800.3000000000001 78.0 775.85 78.0C761.7500000000001 78.0 750.6500000000001 83.55 743.6 94.05V79.95ZM775.4000000000001 88.2C794.0000000000001 88.2 807.8000000000001 102.30000000000001 807.8000000000001 121.2C807.8000000000001 139.65 793.85 153.75 775.5500000000001 153.75C756.8000000000001 153.75 742.85 139.65 742.85 120.6C742.85 102.45 757.1 88.2 775.4000000000001 88.2Z" fill="#2B1D15"/>
<path d="M829.0500000000001 137.85C829.2 153.75 839.5500000000001 163.95 855.45 163.95C870.3000000000001 163.95 880.5 153.45 880.5 138.45C880.5 128.4 875.85 121.5 866.25 117.45C853.65 112.2 853.0500000000001 112.05000000000001 850.8000000000001 110.85C845.7 108.30000000000001 843.3000000000001 104.85 843.3000000000001 100.05000000000001C843.3000000000001 93.45 848.5500000000001 88.2 855.15 88.2C862.35 88.2 866.5500000000001 92.4 867.15 100.2H878.4C877.95 87.0 868.5 78.0 855.3000000000001 78.0C841.95 78.0 832.0500000000001 87.75 832.0500000000001 101.1C832.0500000000001 107.1 834.15 112.05000000000001 838.2 115.80000000000001C841.65 118.95 841.8000000000001 119.1 853.35 123.75C866.1 129.0 869.25 132.0 869.25 139.5C869.25 147.75 863.5500000000001 153.75 855.45 153.75C846.15 153.75 840.6 148.05 840.0 137.85Z" fill="#2B1D15"/><g fill="#5B3A29"><path d="M0.988 202.0H1.95V192.393H0.988Z" transform="translate(216.000 0)"/><path d="M0.988 202.0H1.95V193.55L7.67 202.0H8.632V192.393H7.67V200.362L2.288 192.393H0.988Z" transform="translate(221.738 0)"/><path d="M2.288 202.0H3.25V193.264H5.447V192.393H0.091V193.264H2.288Z" transform="translate(234.158 0)"/><path d="M0.988 202.0H6.239999999999999V201.129H1.95V197.58H6.0969999999999995V196.709H1.95V193.264H6.239999999999999V192.393H0.988Z" transform="translate(242.496 0)"/><path d="M0.988 202.0H5.928V201.129H1.95V192.393H0.988Z" transform="translate(252.264 0)"/><path d="M0.988 202.0H1.95V192.393H0.988Z" transform="translate(261.070 0)"/><path d="M4.277 197.567V198.438H9.645999999999999C9.503 199.062 9.177999999999999 199.595 8.632 200.141C7.891 200.882 6.877 201.285 5.7589999999999995 201.285C3.4059999999999997 201.285 1.547 199.491 1.547 197.203C1.547 194.889 3.367 193.108 5.7459999999999996 193.108C7.228 193.108 8.475999999999999 193.784 9.139 194.954H10.218C9.581 193.316 7.760999999999999 192.224 5.668 192.224C2.808 192.224 0.572 194.395 0.572 197.177C0.572 199.998 2.847 202.169 5.798 202.169C7.319 202.169 8.619 201.61 9.542 200.544C10.322 199.647 10.738 198.646 10.802999999999999 197.567Z" transform="translate(266.808 0)"/><path d="M0.988 202.0H6.239999999999999V201.129H1.95V197.58H6.0969999999999995V196.709H1.95V193.264H6.239999999999999V192.393H0.988ZM1.313 191.535H2.496L3.6399999999999997 190.573L4.758 191.535H5.915L4.056 189.897H3.198Z" transform="translate(280.944 0)"/><path d="M0.988 202.0H1.95V193.55L7.67 202.0H8.632V192.393H7.67V200.362L2.288 192.393H0.988Z" transform="translate(290.712 0)"/><path d="M8.943999999999999 199.478C8.541 199.985 8.307 200.245 7.981999999999999 200.492C7.332 200.999 6.473999999999999 201.285 5.603 201.285C3.367 201.285 1.547 199.452 1.547 197.19C1.547 194.876 3.2889999999999997 193.108 5.59 193.108C6.422 193.108 7.202 193.329 7.8389999999999995 193.758C8.267999999999999 194.031 8.528 194.317 8.892 194.889H9.971C9.23 193.238 7.54 192.224 5.551 192.224C2.691 192.224 0.572 194.356 0.572 197.229C0.572 200.05 2.743 202.169 5.616 202.169C7.566 202.169 9.048 201.259 10.01 199.478Z" transform="translate(303.132 0)"/><path d="M0.988 202.0H1.95V192.393H0.988Z" transform="translate(316.501 0)"/><path d="M0.143 202.0H1.157L2.561 198.763H7.0329999999999995L8.424 202.0H9.477L5.343 192.393H4.264ZM2.925 197.892 4.81 193.485 6.656 197.892Z" transform="translate(322.239 0)"/><path d="M0.988 202.0H1.95V197.489H6.928999999999999V202.0H7.891V192.393H6.928999999999999V196.618H1.95V192.393H0.988Z" transform="translate(341.060 0)"/><path d="M0.988 192.393V198.386C0.988 199.621 1.183 200.349 1.664 200.986C2.2359999999999998 201.74 3.185 202.169 4.2509999999999994 202.169C5.33 202.169 6.279 201.74 6.851 200.986C7.332 200.349 7.526999999999999 199.621 7.526999999999999 198.386V192.393H6.5649999999999995V198.386C6.5649999999999995 199.257 6.422 199.92 6.122999999999999 200.375C5.7589999999999995 200.934 5.044 201.285 4.2509999999999994 201.285C3.4709999999999996 201.285 2.756 200.934 2.392 200.375C2.093 199.92 1.95 199.257 1.95 198.386V192.393Z" transform="translate(352.739 0)"/><path d="M0.988 202.0H1.95V193.446L5.551 202.0H6.383L9.997 193.446V202.0H10.959V192.393H9.464L5.9799999999999995 200.57L2.483 192.393H0.988Z" transform="translate(364.054 0)"/><path d="M0.143 202.0H1.157L2.561 198.763H7.0329999999999995L8.424 202.0H9.477L5.343 192.393H4.264ZM2.925 197.892 4.81 193.485 6.656 197.892Z" transform="translate(378.801 0)"/><path d="M0.988 202.0H1.95V193.55L7.67 202.0H8.632V192.393H7.67V200.362L2.288 192.393H0.988Z" transform="translate(391.221 0)"/><path d="M0.143 202.0H1.157L2.561 198.763H7.0329999999999995L8.424 202.0H9.477L5.343 192.393H4.264ZM2.925 197.892 4.81 193.485 6.656 197.892Z" transform="translate(403.641 0)"/><path d="M1.183 202.871H2.145L3.2889999999999997 200.362H2.327Z" transform="translate(416.061 0)"/><path d="M4.667 198.412C6.513 198.217 7.5009999999999994 197.203 7.5009999999999994 195.474C7.5009999999999994 194.278 6.994 193.368 6.058 192.861C5.46 192.536 4.641 192.393 3.367 192.393H0.988V202.0H1.95V193.264H3.302C4.316 193.264 4.992 193.368 5.512 193.615C6.162 193.927 6.526 194.577 6.526 195.448C6.526 196.54 6.032 197.229 5.069999999999999 197.476C4.615 197.593 3.9909999999999997 197.645 2.925 197.645L6.162 202.0H7.358Z" transform="translate(428.863 0)"/><path d="M0.988 202.0H6.239999999999999V201.129H1.95V197.58H6.0969999999999995V196.709H1.95V193.264H6.239999999999999V192.393H0.988Z" transform="translate(439.554 0)"/><path d="M0.286 199.309C0.377 201.038 1.5599999999999998 202.169 3.2889999999999997 202.169C4.952999999999999 202.169 6.188 200.96 6.188 199.322C6.188 198.477 5.837 197.723 5.239 197.268C4.835999999999999 196.982 4.433 196.8 3.445 196.501C2.574 196.241 2.288 196.124 2.028 195.903C1.755 195.656 1.573 195.227 1.573 194.785C1.573 193.81 2.275 193.108 3.2369999999999997 193.108C4.212 193.108 4.875 193.77100000000002 4.952999999999999 194.824H5.954C5.915 193.264 4.835999999999999 192.224 3.263 192.224C1.716 192.224 0.598 193.303 0.598 194.811C0.598 195.474 0.845 196.111 1.274 196.514C1.651 196.878 1.9369999999999998 197.008 3.068 197.372C3.8219999999999996 197.593 4.2379999999999995 197.775 4.563 197.996C4.979 198.295 5.213 198.789 5.213 199.374C5.213 200.479 4.42 201.285 3.315 201.285C2.7039999999999997 201.285 2.1189999999999998 201.012 1.768 200.57C1.4949999999999999 200.232 1.378 199.907 1.313 199.309Z" transform="translate(449.322 0)"/><path d="M0.988 192.393V198.386C0.988 199.621 1.183 200.349 1.664 200.986C2.2359999999999998 201.74 3.185 202.169 4.2509999999999994 202.169C5.33 202.169 6.279 201.74 6.851 200.986C7.332 200.349 7.526999999999999 199.621 7.526999999999999 198.386V192.393H6.5649999999999995V198.386C6.5649999999999995 199.257 6.422 199.92 6.122999999999999 200.375C5.7589999999999995 200.934 5.044 201.285 4.2509999999999994 201.285C3.4709999999999996 201.285 2.756 200.934 2.392 200.375C2.093 199.92 1.95 199.257 1.95 198.386V192.393Z" transform="translate(458.596 0)"/><path d="M0.988 202.0H5.928V201.129H1.95V192.393H0.988Z" transform="translate(469.911 0)"/><path d="M2.288 202.0H3.25V193.264H5.447V192.393H0.091V193.264H2.288Z" transform="translate(478.717 0)"/><path d="M0.143 202.0H1.157L2.561 198.763H7.0329999999999995L8.424 202.0H9.477L5.343 192.393H4.264ZM2.925 197.892 4.81 193.485 6.656 197.892Z" transform="translate(487.055 0)"/><path d="M0.988 202.0H3.5749999999999997C5.018 202.0 6.032 201.779 6.877 201.285C8.333 200.427 9.1 199.023 9.1 197.229C9.1 195.422 8.346 193.992 6.928999999999999 193.147C6.005999999999999 192.601 4.992 192.393 3.25 192.393H0.988ZM1.95 201.129V193.264H3.2889999999999997C4.732 193.264 5.681 193.459 6.383 193.875C7.4879999999999995 194.551 8.125 195.76 8.125 197.19C8.125 198.451 7.630999999999999 199.556 6.747 200.271C5.9799999999999995 200.882 4.992 201.129 3.2889999999999997 201.129Z" transform="translate(499.475 0)"/><path d="M5.654999999999999 192.224C2.899 192.224 0.572 194.473 0.572 197.138C0.572 199.933 2.834 202.169 5.668 202.169C8.437 202.169 10.725 199.92 10.725 197.203C10.725 194.46 8.437 192.224 5.654999999999999 192.224ZM5.654999999999999 193.108C7.904 193.108 9.75 194.967 9.75 197.216C9.75 199.439 7.891 201.285 5.668 201.285C3.38 201.285 1.547 199.439 1.547 197.164C1.547 194.967 3.432 193.108 5.654999999999999 193.108Z" transform="translate(511.947 0)"/><path d="M0.286 199.309C0.377 201.038 1.5599999999999998 202.169 3.2889999999999997 202.169C4.952999999999999 202.169 6.188 200.96 6.188 199.322C6.188 198.477 5.837 197.723 5.239 197.268C4.835999999999999 196.982 4.433 196.8 3.445 196.501C2.574 196.241 2.288 196.124 2.028 195.903C1.755 195.656 1.573 195.227 1.573 194.785C1.573 193.81 2.275 193.108 3.2369999999999997 193.108C4.212 193.108 4.875 193.77100000000002 4.952999999999999 194.824H5.954C5.915 193.264 4.835999999999999 192.224 3.263 192.224C1.716 192.224 0.598 193.303 0.598 194.811C0.598 195.474 0.845 196.111 1.274 196.514C1.651 196.878 1.9369999999999998 197.008 3.068 197.372C3.8219999999999996 197.593 4.2379999999999995 197.775 4.563 197.996C4.979 198.295 5.213 198.789 5.213 199.374C5.213 200.479 4.42 201.285 3.315 201.285C2.7039999999999997 201.285 2.1189999999999998 201.012 1.768 200.57C1.4949999999999999 200.232 1.378 199.907 1.313 199.309Z" transform="translate(526.044 0)"/><path d="M4.667 198.412C6.513 198.217 7.5009999999999994 197.203 7.5009999999999994 195.474C7.5009999999999994 194.278 6.994 193.368 6.058 192.861C5.46 192.536 4.641 192.393 3.367 192.393H0.988V202.0H1.95V193.264H3.302C4.316 193.264 4.992 193.368 5.512 193.615C6.162 193.927 6.526 194.577 6.526 195.448C6.526 196.54 6.032 197.229 5.069999999999999 197.476C4.615 197.593 3.9909999999999997 197.645 2.925 197.645L6.162 202.0H7.358Z" transform="translate(541.719 0)"/><path d="M0.988 202.0H6.239999999999999V201.129H1.95V197.58H6.0969999999999995V196.709H1.95V193.264H6.239999999999999V192.393H0.988Z" transform="translate(552.410 0)"/><path d="M0.143 202.0H1.157L2.561 198.763H7.0329999999999995L8.424 202.0H9.477L5.343 192.393H4.264ZM2.925 197.892 4.81 193.485 6.656 197.892Z" transform="translate(562.178 0)"/><path d="M0.988 202.0H1.95V192.393H0.988Z" transform="translate(574.598 0)"/><path d="M0.286 199.309C0.377 201.038 1.5599999999999998 202.169 3.2889999999999997 202.169C4.952999999999999 202.169 6.188 200.96 6.188 199.322C6.188 198.477 5.837 197.723 5.239 197.268C4.835999999999999 196.982 4.433 196.8 3.445 196.501C2.574 196.241 2.288 196.124 2.028 195.903C1.755 195.656 1.573 195.227 1.573 194.785C1.573 193.81 2.275 193.108 3.2369999999999997 193.108C4.212 193.108 4.875 193.77100000000002 4.952999999999999 194.824H5.954C5.915 193.264 4.835999999999999 192.224 3.263 192.224C1.716 192.224 0.598 193.303 0.598 194.811C0.598 195.474 0.845 196.111 1.274 196.514C1.651 196.878 1.9369999999999998 197.008 3.068 197.372C3.8219999999999996 197.593 4.2379999999999995 197.775 4.563 197.996C4.979 198.295 5.213 198.789 5.213 199.374C5.213 200.479 4.42 201.285 3.315 201.285C2.7039999999999997 201.285 2.1189999999999998 201.012 1.768 200.57C1.4949999999999999 200.232 1.378 199.907 1.313 199.309Z" transform="translate(580.336 0)"/><path d="M1.313 202.0H2.275V200.362H1.313Z" transform="translate(589.610 0)"/></g>
</svg>
