<svg xmlns="http://www.w3.org/2000/svg" viewBox="0 0 948 230" role="img" aria-label="SelexOps">
<defs>
  <linearGradient id="selexopsGold" x1="0" y1="0" x2="1" y2="1">
    <stop offset="0" stop-color="#D8C4A8"/>
    <stop offset="0.52" stop-color="#C99B5D"/>
    <stop offset="1" stop-color="#A87832"/>
  </linearGradient>
  <linearGradient id="selexopsWarm" x1="0" y1="0" x2="1" y2="0">
    <stop offset="0" stop-color="#F7F2E8"/>
    <stop offset="0.68" stop-color="#D8C4A8"/>
    <stop offset="1" stop-color="#C99B5D"/>
  </linearGradient>
</defs>
<path d="M24.509999999999998 147.565C25.945 174.83 44.599999999999994 192.665 71.865 192.665C98.10499999999999 192.665 117.58 173.6 117.58 147.77C117.58 134.445 112.04499999999999 122.555 102.615 115.38000000000001C96.25999999999999 110.87 89.905 108.0 74.32499999999999 103.28500000000001C60.589999999999996 99.185 56.08 97.34 51.98 93.855C47.675 89.96000000000001 44.805 83.19500000000001 44.805 76.22500000000001C44.805 60.849999999999994 55.875 49.78 71.04499999999999 49.78C86.42 49.78 96.875 60.235000000000014 98.10499999999999 76.84H113.89C113.27499999999999 52.24000000000001 96.25999999999999 35.84 71.455 35.84C47.06 35.84 29.43 52.85500000000002 29.43 76.635C29.43 87.09 33.325 97.135 40.09 103.49000000000001C46.035 109.23 50.545 111.28 68.38 117.02000000000001C80.27 120.50500000000001 86.83 123.375 91.955 126.86000000000001C98.515 131.575 102.205 139.365 102.205 148.59C102.205 166.015 89.7 178.725 72.275 178.725C62.64 178.725 53.415 174.42000000000002 47.879999999999995 167.45C43.575 162.12 41.730000000000004 156.995 40.705 147.565Z" fill="#2B1D15"/>
<path d="M248.34499999999997 138.955C248.34499999999997 123.58 246.295 114.15 240.76 104.31C230.71499999999997 86.27000000000001 211.23999999999998 75.2 189.71499999999997 75.2C157.12 75.2 131.7 100.825 131.7 133.42000000000002C131.7 166.63 157.73499999999999 192.665 190.945 192.665C215.33999999999997 192.665 237.27499999999998 176.88 245.47499999999997 153.1H229.69C223.33499999999998 168.475 207.54999999999998 178.725 190.53499999999997 178.725C167.36999999999998 178.725 148.1 161.095 146.86999999999998 138.955ZM147.27999999999997 125.22C151.38 103.69500000000001 168.39499999999998 89.14 189.71499999999997 89.14C211.445 89.14 227.84499999999997 102.67 233.17499999999998 125.22Z" fill="#2B1D15"/>
<path d="M270.255 190.0H285.42499999999995V38.504999999999995H270.255Z" fill="#2B1D15"/>
<path d="M424.59499999999997 138.955C424.59499999999997 123.58 422.54499999999996 114.15 417.01 104.31C406.965 86.27000000000001 387.48999999999995 75.2 365.965 75.2C333.37 75.2 307.95 100.825 307.95 133.42000000000002C307.95 166.63 333.98499999999996 192.665 367.19499999999994 192.665C391.59 192.665 413.525 176.88 421.72499999999997 153.1H405.93999999999994C399.585 168.475 383.79999999999995 178.725 366.78499999999997 178.725C343.61999999999995 178.725 324.34999999999997 161.095 323.11999999999995 138.955ZM323.53 125.22C327.63 103.69500000000001 344.645 89.14 365.965 89.14C387.69499999999994 89.14 404.09499999999997 102.67 409.42499999999995 125.22Z" fill="#2B1D15"/>
<path d="M435.22999999999996 190.0H452.45L482.78999999999996 145.10500000000002L512.925 190.0H530.3499999999999L491.195 132.805L530.3499999999999 77.86500000000001H512.925L482.78999999999996 121.12L452.45 77.86500000000001H435.22999999999996L474.17999999999995 132.805Z" fill="#A87832"/>
<path d="M622.165 35.84C578.705 35.84 542.01 71.305 542.01 113.33C542.01 157.405 577.6800000000001 192.665 622.37 192.665C666.035 192.665 702.115 157.2 702.115 114.355C702.115 71.10000000000001 666.035 35.84 622.165 35.84ZM622.165 49.78C657.63 49.78 686.74 79.09500000000001 686.74 114.56C686.74 149.615 657.425 178.725 622.37 178.725C586.29 178.725 557.385 149.615 557.385 113.74000000000001C557.385 79.09500000000001 587.11 49.78 622.165 49.78Z" fill="#2B1D15"/>
<path d="M725.05 77.86500000000001V229.36H740.22V170.73C750.06 185.08 765.23 192.665 783.885 192.665C817.505 192.665 843.335 167.04 843.335 134.24C843.335 100.62 817.71 75.2 784.295 75.2C765.025 75.2 749.855 82.78500000000001 740.22 97.135V77.86500000000001ZM783.68 89.14C809.1 89.14 827.96 108.41000000000001 827.96 134.24C827.96 159.455 808.895 178.725 783.885 178.725C758.26 178.725 739.1949999999999 159.455 739.1949999999999 133.42000000000002C739.1949999999999 108.61500000000001 758.67 89.14 783.68 89.14Z" fill="#2B1D15"/>
<path d="M856.635 156.995C856.8399999999999 178.725 870.9849999999999 192.665 892.7149999999999 192.665C913.01 192.665 926.9499999999999 178.315 926.9499999999999 157.815C926.9499999999999 144.08 920.5949999999999 134.65 907.4749999999999 129.115C890.2549999999999 121.94 889.435 121.735 886.3599999999999 120.095C879.39 116.61 876.1099999999999 111.89500000000001 876.1099999999999 105.33500000000001C876.1099999999999 96.31500000000001 883.285 89.14 892.305 89.14C902.145 89.14 907.885 94.88000000000001 908.7049999999999 105.54H924.0799999999999C923.4649999999999 87.5 910.55 75.2 892.51 75.2C874.265 75.2 860.7349999999999 88.525 860.7349999999999 106.77000000000001C860.7349999999999 114.97 863.6049999999999 121.735 869.14 126.86000000000001C873.8549999999999 131.16500000000002 874.06 131.37 889.8449999999999 137.725C907.27 144.9 911.5749999999999 149.0 911.5749999999999 159.25C911.5749999999999 170.525 903.785 178.725 892.7149999999999 178.725C880.0049999999999 178.725 872.42 170.935 871.5999999999999 156.995Z" fill="#2B1D15"/>
</svg>
