<svg xmlns="http://www.w3.org/2000/svg" viewBox="0 0 512 580" role="img" aria-label="SelexOps">
<defs>
  <linearGradient id="selexopsGold" x1="0" y1="0" x2="1" y2="1">
    <stop offset="0" stop-color="#D8C4A8"/>
    <stop offset="0.52" stop-color="#C99B5D"/>
    <stop offset="1" stop-color="#A87832"/>
  </linearGradient>
  <linearGradient id="selexopsWarm" x1="0" y1="0" x2="1" y2="0">
    <stop offset="0" stop-color="#F7F2E8"/>
    <stop offset="0.68" stop-color="#D8C4A8"/>
    <stop offset="1" stop-color="#C99B5D"/>
  </linearGradient>
</defs>
<g transform="translate(138 4) scale(.56)"><g fill="none" stroke-linecap="round" stroke-linejoin="round">
  <path d="M421 86 C350 28 235 28 162 82 C107 123 87 181 101 233 C105 247 101 258 93 274 L69 317 C63 328 69 337 82 339 L101 342 C108 343 111 350 106 356 L98 365 C93 371 96 378 105 381 C99 388 101 397 110 401 C105 421 115 442 134 448 C157 455 181 440 205 444 C229 448 240 467 237 489 C232 523 193 548 132 558" stroke="#2B1D15" stroke-width="8.5"/>
  <path d="M386 104 C326 70 220 72 171 109 C143 130 145 154 175 164 C201 173 232 166 262 181 C312 206 332 254 317 303 C307 338 281 365 270 399 C255 447 271 504 363 557" stroke="#2B1D15" stroke-width="7.2"/>
  <path d="M273 130 C306 139 334 148 365 151" stroke="#A87832" stroke-width="2.1"/>
  <path d="M315 144 C351 179 354 229 329 271" stroke="#A87832" stroke-width="1.8" opacity=".8"/>
  <path d="M365 151 C397 189 397 252 370 301" stroke="#A87832" stroke-width="2" opacity=".88"/>
  <circle cx="272" cy="130" r="6" fill="#A87832" stroke="none"/>
  <circle cx="315" cy="144" r="9" fill="#A87832" stroke="none"/>
  <circle cx="365" cy="151" r="8" fill="#A87832" stroke="none"/>
  <circle cx="329" cy="212" r="10" fill="#A87832" stroke="none"/>
  <circle cx="407" cy="204" r="11" fill="#A87832" stroke="none"/>
  <circle cx="386" cy="112" r="10" fill="#A87832" stroke="none"/>
</g></g><path d="M21.537846865668143 483.1817216104246C22.2756630430934 497.20022898150444 31.867273349621733 506.3702300437898 45.885780720701604 506.3702300437898C59.377276536477716 506.3702300437898 69.39049608724906 496.5678151151399 69.39049608724906 483.2871239214853C69.39049608724906 476.4359737025365 66.54463368860877 470.32263966101294 61.696127379814236 466.63355877388665C58.428655736930956 464.3147079305501 55.161184094047684 462.83907557569967 47.150608453430614 460.41482242130235C40.088653612360304 458.30677620008737 37.769802769023784 457.35815540054057 35.661756547808764 455.5663161125078C33.448308015532994 453.5636722023536 31.972675660682484 450.0853959373488 31.972675660682484 446.5017173612832C31.972675660682484 438.5965440317269 37.664400457963026 432.9048192344464 45.4641714764586 432.9048192344464C53.369344806014915 432.9048192344464 58.744862670113214 438.2803370985447 59.377276536477716 446.8179242944655H67.49325448815554C67.17704755497329 434.16964696717537 58.428655736930956 425.73746208231535 45.6749760985801 425.73746208231535C33.132101082350744 425.73746208231535 24.067502331126164 434.48585390035765 24.067502331126164 446.71252198340477C24.067502331126164 452.08803984750307 26.070146241280433 457.2527530894798 29.548422506285213 460.5202247323631C32.605089527046985 463.4714894420641 34.923940370383505 464.52551255267167 44.093941432668835 467.4767772623727C50.207275474192386 469.26861655040545 53.580149428136416 470.744248905256 56.215207204655194 472.5360881932887C59.588081158599216 474.960341347686 61.485322757692735 478.9656291679945 61.485322757692735 483.7087331657283C61.485322757692735 492.66792960589214 55.055781782986934 499.20287289165867 46.096585342823104 499.20287289165867C41.142676722967806 499.20287289165867 36.39957272523402 496.98942435938295 33.553710326593745 493.4057457833174C31.340261794317975 490.66528569573785 30.39164099477122 488.0302279192191 29.864629439467464 483.1817216104246Z" fill="#2B1D15"/>
<path d="M137.11015898870437 478.754824545873C137.11015898870437 470.8496512163167 136.05613587809688 466.0011449075222 133.2102734794566 460.9418339766061C128.0455602374798 451.66643060326004 118.03234068670847 445.9747058059795 106.96509802532962 445.9747058059795C90.20613056667023 445.9747058059795 77.13624399513712 459.1499946885734 77.13624399513712 475.9089621472327C77.13624399513712 492.98413653907437 90.52233749985248 506.3702300437898 107.59751189169413 506.3702300437898C120.14038690792349 506.3702300437898 131.41843419142384 498.2542520921119 135.63452663385388 486.02758400906487H127.51854868217606C124.25107703929277 493.9327573386212 116.13509908761495 499.20287289165867 107.38670726957264 499.20287289165867C95.47624611970778 499.20287289165867 85.56842887999719 490.13827414043413 84.93601501363268 478.754824545873ZM85.14681963575418 471.6928697048027C87.2548658569692 460.6256270434239 96.00325767501153 453.14206295811056 106.96509802532962 453.14206295811056C118.13774299776922 453.14206295811056 126.56992788262929 460.0986154881201 129.3103879702088 471.6928697048027Z" fill="#2B1D15"/>
<path d="M148.86119471690097 505.0H156.66096573539653V427.10769212610506H148.86119471690097Z" fill="#2B1D15"/>
<path d="M228.70212339034265 478.754824545873C228.70212339034265 470.8496512163167 227.64810027973516 466.0011449075222 224.80223788109487 460.9418339766061C219.63752463911808 451.66643060326004 209.62430508834674 445.9747058059795 198.5570624269679 445.9747058059795C181.7980949683085 445.9747058059795 168.7282083967754 459.1499946885734 168.7282083967754 475.9089621472327C168.7282083967754 492.98413653907437 182.11430190149076 506.3702300437898 199.1894762933324 506.3702300437898C211.73235130956175 506.3702300437898 223.01039859306212 498.2542520921119 227.22649103549216 486.02758400906487H219.11051308381434C215.84304144093105 493.9327573386212 207.72706348925323 499.20287289165867 198.97867167121092 499.20287289165867C187.06821052134606 499.20287289165867 177.16039328163546 490.13827414043413 176.52797941527098 478.754824545873ZM176.73878403739246 471.6928697048027C178.8468302586075 460.6256270434239 187.5952220766498 453.14206295811056 198.5570624269679 453.14206295811056C209.72970739940752 453.14206295811056 218.16189228426757 460.0986154881201 220.9023523718471 471.6928697048027Z" fill="#2B1D15"/>
<path d="M234.65603201019795 505.0H243.50982613930103L259.10936817629215 481.91689387769554L274.60350790222253 505.0H283.5627043423864L263.43086292978296 475.5927552140505L283.5627043423864 447.3449358497693H274.60350790222253L259.10936817629215 469.5848234835877L243.50982613930103 447.3449358497693H234.65603201019795L254.68247111174063 475.5927552140505Z" fill="#A87832"/>
<path d="M331.255928142299 425.73746208231535C308.9106381974198 425.73746208231535 290.0436245175454 443.9720618958252 290.0436245175454 465.57953566327916C290.0436245175454 488.2410325413406 308.3836266421161 506.3702300437898 331.36133045335976 506.3702300437898C353.81202270929975 506.3702300437898 372.3628294559919 488.13563023027984 372.3628294559919 466.10654721858293C372.3628294559919 443.8666595847645 353.81202270929975 425.73746208231535 331.255928142299 425.73746208231535ZM331.255928142299 432.9048192344464C349.49052795580894 432.9048192344464 364.45765612643555 447.97734971613374 364.45765612643555 466.2119495296437C364.45765612643555 484.23574472103206 349.3851256447482 499.20287289165867 331.36133045335976 499.20287289165867C312.8105237066676 499.20287289165867 297.94879784710173 484.23574472103206 297.94879784710173 465.79034028540065C297.94879784710173 447.97734971613374 313.2321329509106 432.9048192344464 331.255928142299 432.9048192344464Z" fill="#2B1D15"/>
<path d="M384.6408767394923 447.3449358497693V525.2372437236642H392.44064775798785V495.0921827602894C397.49995868890386 502.470344534542 405.2997297073994 506.3702300437898 414.8913400139278 506.3702300437898C432.1773190278909 506.3702300437898 445.4580102215455 493.1949411611959 445.4580102215455 476.33057139147576C445.4580102215455 459.04459237751263 432.28272133895166 445.9747058059795 415.1021446360493 445.9747058059795C405.1943273963387 445.9747058059795 397.3945563778431 449.8745913152273 392.44064775798785 457.2527530894798V447.3449358497693ZM414.78593770286705 453.14206295811056C427.8558242744001 453.14206295811056 437.5528368919892 463.04988019782115 437.5528368919892 476.33057139147576C437.5528368919892 489.29505565194813 427.75042196333936 499.20287289165867 414.8913400139278 499.20287289165867C401.7160511313339 499.20287289165867 391.9136362026841 489.29505565194813 391.9136362026841 475.9089621472327C391.9136362026841 463.1552825088819 401.9268557534554 453.14206295811056 414.78593770286705 453.14206295811056Z" fill="#2B1D15"/>
<path d="M452.78214888519057 488.0302279192191C452.88755119625137 499.20287289165867 460.16031065944316 506.3702300437898 471.3329556318827 506.3702300437898C481.7677844268971 506.3702300437898 488.93514157902814 498.9920682695372 488.93514157902814 488.45183716346213C488.93514157902814 481.3898823223918 485.6676699361449 476.54137601359724 478.9219220282568 473.695513614957C470.06812789915375 470.0064327278307 469.6465186549107 469.90103041676997 468.06548398899946 469.05781192828397C464.48180541293397 467.26597264025116 462.7953684359619 464.8417194858539 462.7953684359619 461.4688455319099C462.7953684359619 456.83114384523685 466.4844493230882 453.14206295811056 471.12215100976124 453.14206295811056C476.1814619406773 453.14206295811056 479.13272665037834 456.0933276678116 479.5543358946213 461.57424784297064H487.4595092241776C487.1433022909954 452.29884446962456 480.50295669416806 445.9747058059795 471.227553320822 445.9747058059795C461.84674763641516 445.9747058059795 454.8901951064056 452.8258560249283 454.8901951064056 462.20666170933515C454.8901951064056 466.42275415176516 456.3658274612561 469.90103041676997 459.2116898598964 472.5360881932887C461.6359430142937 474.7495367255645 461.7413453253544 474.85493903662524 469.85732327703226 478.1224106795085C478.81651971719606 481.8114915666348 481.02996824947184 483.91953778784983 481.02996824947184 489.1896533408874C481.02996824947184 494.98678044922866 477.0246804291633 499.20287289165867 471.3329556318827 499.20287289165867C464.7980123461162 499.20287289165867 460.8981268368684 495.19758507135015 460.4765175926254 488.0302279192191Z" fill="#2B1D15"/><g fill="#5B3A29"><path d="M0.912 550.0H1.8V541.132H0.912Z" transform="translate(85.318 0)"/><path d="M0.912 550.0H1.8V542.2L7.08 550.0H7.968V541.132H7.08V548.488L2.112 541.132H0.912Z" transform="translate(90.430 0)"/><path d="M2.112 550.0H3.0V541.936H5.0280000000000005V541.132H0.084V541.936H2.112Z" transform="translate(101.710 0)"/><path d="M0.912 550.0H5.76V549.196H1.8V545.92H5.628V545.116H1.8V541.936H5.76V541.132H0.912Z" transform="translate(109.222 0)"/><path d="M0.912 550.0H5.472V549.196H1.8V541.132H0.912Z" transform="translate(118.054 0)"/><path d="M0.912 550.0H1.8V541.132H0.912Z" transform="translate(125.998 0)"/><path d="M3.948 545.908V546.712H8.904C8.772 547.288 8.472 547.78 7.968 548.284C7.284 548.968 6.348 549.34 5.316 549.34C3.144 549.34 1.428 547.684 1.428 545.572C1.428 543.436 3.108 541.792 5.304 541.792C6.672 541.792 7.824 542.416 8.436 543.496H9.432C8.844 541.984 7.164000000000001 540.976 5.232 540.976C2.592 540.976 0.528 542.98 0.528 545.548C0.528 548.152 2.628 550.156 5.352 550.156C6.756 550.156 7.956 549.64 8.808 548.656C9.528 547.828 9.912 546.904 9.972 545.908Z" transform="translate(131.110 0)"/><path d="M0.912 550.0H5.76V549.196H1.8V545.92H5.628V545.116H1.8V541.936H5.76V541.132H0.912ZM1.212 540.34H2.3040000000000003L3.36 539.452L4.392 540.34H5.46L3.744 538.828H2.952Z" transform="translate(143.974 0)"/><path d="M0.912 550.0H1.8V542.2L7.08 550.0H7.968V541.132H7.08V548.488L2.112 541.132H0.912Z" transform="translate(152.806 0)"/><path d="M8.256 547.672C7.884 548.14 7.668 548.38 7.368 548.608C6.768 549.076 5.976 549.34 5.172 549.34C3.108 549.34 1.428 547.648 1.428 545.56C1.428 543.424 3.036 541.792 5.16 541.792C5.928 541.792 6.648000000000001 541.996 7.236 542.392C7.632000000000001 542.644 7.872 542.908 8.208 543.436H9.204C8.52 541.912 6.96 540.976 5.124 540.976C2.484 540.976 0.528 542.944 0.528 545.596C0.528 548.2 2.532 550.156 5.184 550.156C6.984 550.156 8.352 549.316 9.24 547.672Z" transform="translate(164.086 0)"/><path d="M0.912 550.0H1.8V541.132H0.912Z" transform="translate(176.242 0)"/><path d="M0.132 550.0H1.068L2.364 547.012H6.492L7.776 550.0H8.748L4.932 541.132H3.936ZM2.7 546.208 4.44 542.14 6.144 546.208Z" transform="translate(181.354 0)"/><path d="M0.912 550.0H1.8V545.836H6.396V550.0H7.284V541.132H6.396V545.032H1.8V541.132H0.912Z" transform="translate(198.358 0)"/><path d="M0.912 541.132V546.664C0.912 547.804 1.092 548.476 1.536 549.064C2.064 549.76 2.94 550.156 3.924 550.156C4.92 550.156 5.796 549.76 6.324 549.064C6.768 548.476 6.948 547.804 6.948 546.664V541.132H6.0600000000000005V546.664C6.0600000000000005 547.468 5.928 548.08 5.652 548.5C5.316 549.016 4.656 549.34 3.924 549.34C3.204 549.34 2.544 549.016 2.208 548.5C1.932 548.08 1.8 547.468 1.8 546.664V541.132Z" transform="translate(208.954 0)"/><path d="M0.912 550.0H1.8V542.104L5.124 550.0H5.892L9.228 542.104V550.0H10.116V541.132H8.736L5.5200000000000005 548.68L2.2920000000000003 541.132H0.912Z" transform="translate(219.214 0)"/><path d="M0.132 550.0H1.068L2.364 547.012H6.492L7.776 550.0H8.748L4.932 541.132H3.936ZM2.7 546.208 4.44 542.14 6.144 546.208Z" transform="translate(232.642 0)"/><path d="M0.912 550.0H1.8V542.2L7.08 550.0H7.968V541.132H7.08V548.488L2.112 541.132H0.912Z" transform="translate(243.922 0)"/><path d="M0.132 550.0H1.068L2.364 547.012H6.492L7.776 550.0H8.748L4.932 541.132H3.936ZM2.7 546.208 4.44 542.14 6.144 546.208Z" transform="translate(255.202 0)"/><path d="M1.092 550.804H1.98L3.036 548.488H2.148Z" transform="translate(266.482 0)"/><path d="M4.308 546.688C6.0120000000000005 546.508 6.924 545.572 6.924 543.976C6.924 542.872 6.456 542.032 5.5920000000000005 541.564C5.04 541.264 4.284 541.132 3.108 541.132H0.912V550.0H1.8V541.936H3.048C3.984 541.936 4.6080000000000005 542.032 5.088 542.26C5.688 542.548 6.024 543.148 6.024 543.952C6.024 544.96 5.5680000000000005 545.596 4.68 545.824C4.26 545.932 3.684 545.98 2.7 545.98L5.688 550.0H6.792Z" transform="translate(277.930 0)"/><path d="M0.912 550.0H5.76V549.196H1.8V545.92H5.628V545.116H1.8V541.936H5.76V541.132H0.912Z" transform="translate(287.614 0)"/><path d="M0.264 547.516C0.34800000000000003 549.112 1.44 550.156 3.036 550.156C4.572 550.156 5.712 549.04 5.712 547.528C5.712 546.748 5.388 546.052 4.836 545.632C4.464 545.368 4.0920000000000005 545.2 3.18 544.924C2.376 544.684 2.112 544.576 1.872 544.372C1.62 544.144 1.452 543.748 1.452 543.34C1.452 542.44 2.1 541.792 2.988 541.792C3.888 541.792 4.5 542.404 4.572 543.376H5.496C5.46 541.936 4.464 540.976 3.012 540.976C1.584 540.976 0.552 541.972 0.552 543.364C0.552 543.976 0.78 544.564 1.176 544.936C1.524 545.272 1.788 545.392 2.832 545.728C3.528 545.932 3.912 546.1 4.212 546.304C4.596 546.58 4.812 547.036 4.812 547.576C4.812 548.596 4.08 549.34 3.06 549.34C2.496 549.34 1.956 549.088 1.6320000000000001 548.68C1.3800000000000001 548.368 1.272 548.068 1.212 547.516Z" transform="translate(296.446 0)"/><path d="M0.912 541.132V546.664C0.912 547.804 1.092 548.476 1.536 549.064C2.064 549.76 2.94 550.156 3.924 550.156C4.92 550.156 5.796 549.76 6.324 549.064C6.768 548.476 6.948 547.804 6.948 546.664V541.132H6.0600000000000005V546.664C6.0600000000000005 547.468 5.928 548.08 5.652 548.5C5.316 549.016 4.656 549.34 3.924 549.34C3.204 549.34 2.544 549.016 2.208 548.5C1.932 548.08 1.8 547.468 1.8 546.664V541.132Z" transform="translate(304.822 0)"/><path d="M0.912 550.0H5.472V549.196H1.8V541.132H0.912Z" transform="translate(315.082 0)"/><path d="M2.112 550.0H3.0V541.936H5.0280000000000005V541.132H0.084V541.936H2.112Z" transform="translate(323.026 0)"/><path d="M0.132 550.0H1.068L2.364 547.012H6.492L7.776 550.0H8.748L4.932 541.132H3.936ZM2.7 546.208 4.44 542.14 6.144 546.208Z" transform="translate(330.538 0)"/><path d="M0.912 550.0H3.3000000000000003C4.632 550.0 5.5680000000000005 549.796 6.348 549.34C7.692 548.548 8.4 547.252 8.4 545.596C8.4 543.928 7.704 542.608 6.396 541.828C5.5440000000000005 541.324 4.6080000000000005 541.132 3.0 541.132H0.912ZM1.8 549.196V541.936H3.036C4.368 541.936 5.244 542.116 5.892 542.5C6.912 543.124 7.5 544.24 7.5 545.56C7.5 546.724 7.0440000000000005 547.744 6.228 548.404C5.5200000000000005 548.968 4.6080000000000005 549.196 3.036 549.196Z" transform="translate(341.818 0)"/><path d="M5.22 540.976C2.676 540.976 0.528 543.052 0.528 545.512C0.528 548.092 2.616 550.156 5.232 550.156C7.788 550.156 9.9 548.08 9.9 545.572C9.9 543.04 7.788 540.976 5.22 540.976ZM5.22 541.792C7.296 541.792 9.0 543.508 9.0 545.584C9.0 547.636 7.284 549.34 5.232 549.34C3.12 549.34 1.428 547.636 1.428 545.536C1.428 543.508 3.168 541.792 5.22 541.792Z" transform="translate(353.146 0)"/><path d="M0.264 547.516C0.34800000000000003 549.112 1.44 550.156 3.036 550.156C4.572 550.156 5.712 549.04 5.712 547.528C5.712 546.748 5.388 546.052 4.836 545.632C4.464 545.368 4.0920000000000005 545.2 3.18 544.924C2.376 544.684 2.112 544.576 1.872 544.372C1.62 544.144 1.452 543.748 1.452 543.34C1.452 542.44 2.1 541.792 2.988 541.792C3.888 541.792 4.5 542.404 4.572 543.376H5.496C5.46 541.936 4.464 540.976 3.012 540.976C1.584 540.976 0.552 541.972 0.552 543.364C0.552 543.976 0.78 544.564 1.176 544.936C1.524 545.272 1.788 545.392 2.832 545.728C3.528 545.932 3.912 546.1 4.212 546.304C4.596 546.58 4.812 547.036 4.812 547.576C4.812 548.596 4.08 549.34 3.06 549.34C2.496 549.34 1.956 549.088 1.6320000000000001 548.68C1.3800000000000001 548.368 1.272 548.068 1.212 547.516Z" transform="translate(365.974 0)"/><path d="M4.308 546.688C6.0120000000000005 546.508 6.924 545.572 6.924 543.976C6.924 542.872 6.456 542.032 5.5920000000000005 541.564C5.04 541.264 4.284 541.132 3.108 541.132H0.912V550.0H1.8V541.936H3.048C3.984 541.936 4.6080000000000005 542.032 5.088 542.26C5.688 542.548 6.024 543.148 6.024 543.952C6.024 544.96 5.5680000000000005 545.596 4.68 545.824C4.26 545.932 3.684 545.98 2.7 545.98L5.688 550.0H6.792Z" transform="translate(380.074 0)"/><path d="M0.912 550.0H5.76V549.196H1.8V545.92H5.628V545.116H1.8V541.936H5.76V541.132H0.912Z" transform="translate(389.758 0)"/><path d="M0.132 550.0H1.068L2.364 547.012H6.492L7.776 550.0H8.748L4.932 541.132H3.936ZM2.7 546.208 4.44 542.14 6.144 546.208Z" transform="translate(398.590 0)"/><path d="M0.912 550.0H1.8V541.132H0.912Z" transform="translate(409.870 0)"/><path d="M0.264 547.516C0.34800000000000003 549.112 1.44 550.156 3.036 550.156C4.572 550.156 5.712 549.04 5.712 547.528C5.712 546.748 5.388 546.052 4.836 545.632C4.464 545.368 4.0920000000000005 545.2 3.18 544.924C2.376 544.684 2.112 544.576 1.872 544.372C1.62 544.144 1.452 543.748 1.452 543.34C1.452 542.44 2.1 541.792 2.988 541.792C3.888 541.792 4.5 542.404 4.572 543.376H5.496C5.46 541.936 4.464 540.976 3.012 540.976C1.584 540.976 0.552 541.972 0.552 543.364C0.552 543.976 0.78 544.564 1.176 544.936C1.524 545.272 1.788 545.392 2.832 545.728C3.528 545.932 3.912 546.1 4.212 546.304C4.596 546.58 4.812 547.036 4.812 547.576C4.812 548.596 4.08 549.34 3.06 549.34C2.496 549.34 1.956 549.088 1.6320000000000001 548.68C1.3800000000000001 548.368 1.272 548.068 1.212 547.516Z" transform="translate(414.982 0)"/><path d="M1.212 550.0H2.1V548.488H1.212Z" transform="translate(423.358 0)"/></g>
</svg>
